# xmcd CD database file
#
# Track frame offsets:
#	150
#	18866
#	48832
#
# Disc length: 712 seconds
#
# Revision: 0
# Processed by: cddbd v1.5.1PL0 Copyright (c) Steve Scherf et al.
# Submitted via: CDex 1.51
#
DISCID=1602c603
DTITLE=フロントウイング - ボーイミーツガール  マキシシングル＆ミニゲーム
DYEAR=2005
DGENRE=Game
TTITLE0=Over Drive☆
TTITLE1=Over Drive☆ (カラオケ)
TTITLE2=Data Track
EXTD=YEAR: 2005
EXTT0=
EXTT1=
EXTT2=
PLAYORDER=
